<svg width="23" height="23" viewBox="0 0 23 23" fill="none" xmlns="http://www.w3.org/2000/svg">
<path d="M1.30853 11C1.30853 5.44154 5.68757 1 11.1322 1C16.5191 1 20.9559 5.44343 20.9559 11C20.9559 16.5566 16.5191 21 11.1322 21C5.68943 21 1.30853 16.4997 1.30853 11ZM2.39714 11C2.39714 15.8808 6.31288 19.8757 11.1322 19.8757C15.9516 19.8757 19.8673 15.8808 19.8673 11C19.8673 6.11916 15.9516 2.12428 11.1322 2.12428C6.31288 2.12428 2.39714 6.11916 2.39714 11Z" fill="#E2CF1E" stroke="#242420"/>
<path d="M17.816 19.011L20.561 21.4387" stroke="#242420" stroke-width="3" stroke-miterlimit="10" stroke-linecap="round"/>
<ellipse cx="11.1497" cy="11.0657" rx="9.54564" ry="9.75316" fill="#E2CF1E"/>
</svg>
