<svg width="23" height="13" viewBox="0 0 23 13" fill="none" xmlns="http://www.w3.org/2000/svg">
<path d="M3.43584 5.46686C9.93584 5.46686 16.4358 5.46686 22.9358 5.46686C22.9358 6.06686 22.9358 6.56686 22.9358 7.16686C16.4358 7.16686 9.93584 7.16686 3.43584 7.16686L3.33584 7.26686C4.03584 7.96686 4.63584 8.66686 5.33584 9.36686C5.83584 9.86686 6.33584 10.3669 6.83584 10.9669C7.23584 11.4669 7.23584 11.8669 6.93584 12.2669C6.63584 12.6669 6.13584 12.5669 5.73584 12.1669C4.13584 10.4669 2.53584 8.76686 1.03584 7.06686C0.63584 6.66686 0.63584 6.16686 1.03584 5.76686C2.63584 4.06686 4.13584 2.36686 5.73584 0.666864C6.13584 0.166864 6.53584 0.166864 6.93584 0.566864C7.23584 0.966864 7.23584 1.36686 6.83584 1.86686C5.83584 2.96686 4.83584 3.96686 3.93584 5.06686C3.83584 5.26686 3.63584 5.36686 3.43584 5.46686C3.43584 5.36686 3.43584 5.26686 3.43584 5.46686Z" fill="#242420"/>
</svg>
